<?xml version="1.0" standalone="no"?><!DOCTYPE svg PUBLIC "-//W3C//DTD SVG 1.1//EN" "http://www.w3.org/Graphics/SVG/1.1/DTD/svg11.dtd"><svg t="1733730476288" class="icon" viewBox="0 0 1024 1024" version="1.1" xmlns="http://www.w3.org/2000/svg" p-id="4447" xmlns:xlink="http://www.w3.org/1999/xlink" width="200" height="200"><path d="M841.792 1024c-30.72 0-54.208-22.208-54.208-51.2V51.2c0-28.992 23.488-51.2 54.208-51.2S896 22.208 896 51.2v921.6c0 27.328-23.488 51.2-54.208 51.2zM511.104 1024c-30.72 0-54.208-22.208-54.208-51.2V361.792c0-28.992 23.488-51.2 54.208-51.2s54.208 22.208 54.208 51.2V972.8c0 27.328-23.488 51.2-54.208 51.2zM182.208 1024c-30.72 0-54.208-22.208-54.208-51.2v-310.592c0-29.056 23.488-51.2 54.208-51.2s54.208 22.144 54.208 51.2V972.8c0 27.328-23.488 51.2-54.208 51.2z" fill="#172B4D" p-id="4448"></path><path d="M0 0h64v64H0z" fill="#C4C4C4" p-id="4449"></path></svg>