<svg t="1733736756337" class="icon" viewBox="0 0 1024 1024" version="1.1" xmlns="http://www.w3.org/2000/svg" p-id="5428" width="200" height="200"><path d="M0 0h1024v1024H0z" fill="#FFFFFF" p-id="5429"></path><path d="M96 896a32 32 0 1 0 0 64v-64z m832 64a32 32 0 1 0 0-64v64zM105.376 585.376a32 32 0 1 0 45.248 45.248l-45.248-45.248zM352 384l22.624-22.624a32 32 0 0 0-45.248 0L352 384z m224 224l-22.624 22.624a32 32 0 0 0 44.032 1.152L576 608z m341.408-264.224a32 32 0 1 0-42.816-47.552l42.816 47.552zM96 960h832v-64H96v64z m54.624-329.376l224-224-45.248-45.248-224 224 45.248 45.248z m178.752-224l224 224 45.248-45.248-224-224-45.248 45.248z m268.032 225.152l320-288-42.816-47.552-320 288 42.816 47.552z" fill="#000000" p-id="5430"></path></svg>